<svg width="316" height="276" viewBox="0 0 316 276" fill="none" xmlns="http://www.w3.org/2000/svg">
<path d="M141.374 106.202H14.1232V200.072H141.374V106.202Z" fill="#F5F9FF"/>
<path d="M141.374 106.202H14.1232V117.91H141.374V106.202Z" fill="#D1E5F7"/>
<path d="M24.3384 112.326C24.3384 113.806 23.1387 115.005 21.6594 115.005C20.1794 115.005 18.9804 113.805 18.9804 112.326C18.9804 110.846 20.1802 109.646 21.6594 109.646C23.1387 109.646 24.3384 110.846 24.3384 112.326Z" fill="#F2F2F2"/>
<path d="M33.3602 112.326C33.3602 113.806 32.1604 115.005 30.6811 115.005C29.2019 115.005 28.0021 113.805 28.0021 112.326C28.0021 110.846 29.2019 109.646 30.6811 109.646C32.1604 109.646 33.3602 110.846 33.3602 112.326Z" fill="#F2F2F2"/>
<path d="M42.3819 112.326C42.3819 113.806 41.1821 115.005 39.7029 115.005C38.2229 115.005 37.0239 113.805 37.0239 112.326C37.0239 110.846 38.2236 109.646 39.7029 109.646C41.1829 109.646 42.3819 110.846 42.3819 112.326Z" fill="#F2F2F2"/>
<path d="M99.4734 143.443L93.0756 137.046L77.7489 152.372L62.4213 137.046L56.0235 143.443L71.3511 158.77L56.0235 174.096L62.4213 180.494L77.7489 165.167L93.0756 180.494L99.4734 174.096L84.1459 158.77L99.4734 143.443Z" fill="#E3EBFC"/>
<path d="M297.585 46.999H170.334V140.869H297.585V46.999Z" fill="#F5F9FF"/>
<path d="M297.585 46.999H170.334V58.7074H297.585V46.999Z" fill="#D1E5F7"/>
<path d="M180.55 53.1224C180.55 54.6024 179.35 55.8014 177.871 55.8014C176.391 55.8014 175.192 54.6016 175.192 53.1224C175.192 51.6431 176.392 50.4434 177.871 50.4434C179.35 50.4434 180.55 51.6424 180.55 53.1224Z" fill="#F2F2F2"/>
<path d="M189.571 53.1224C189.571 54.6024 188.372 55.8014 186.892 55.8014C185.412 55.8014 184.213 54.6016 184.213 53.1224C184.213 51.6431 185.413 50.4434 186.892 50.4434C188.372 50.4434 189.571 51.6424 189.571 53.1224Z" fill="#F2F2F2"/>
<path d="M198.593 53.1224C198.593 54.6024 197.393 55.8014 195.914 55.8014C194.434 55.8014 193.235 54.6016 193.235 53.1224C193.235 51.6431 194.435 50.4434 195.914 50.4434C197.393 50.4434 198.593 51.6424 198.593 53.1224Z" fill="#F2F2F2"/>
<path d="M255.684 84.2386L249.287 77.8408L233.959 93.1676L218.632 77.8408L212.235 84.2386L227.561 99.5646L212.235 114.891L218.632 121.288L233.959 105.962L249.287 121.288L255.684 114.891L240.357 99.5646L255.684 84.2386Z" fill="#E3EBFC"/>
<path d="M157.225 276C243.135 276 312.779 269.982 312.779 262.559C312.779 255.136 243.135 249.118 157.225 249.118C71.3153 249.118 1.67163 255.136 1.67163 262.559C1.67163 269.982 71.3153 276 157.225 276Z" fill="#EDF0FC"/>
<path d="M119.288 48.5584C118.103 46.0754 118.166 43.6698 119.475 41.3414L120.112 40.232C120.734 39.2183 121.131 38.4388 121.304 37.8929C121.477 37.3478 121.431 36.7942 121.164 36.2345C120.49 34.8227 118.971 34.6803 116.611 35.8065C115.516 36.3287 114.453 37.0155 113.424 37.8646C112.396 38.7137 111.486 39.6562 110.694 40.6906L108.012 35.0684C109.763 32.9782 112.027 31.2708 114.802 29.947C117.795 28.5183 120.468 28.013 122.818 28.431C125.169 28.8491 126.872 30.1644 127.929 32.3795C128.521 33.6206 128.721 34.7584 128.527 35.792C128.332 36.8264 127.792 38.1372 126.907 39.7244C126.32 40.8116 125.903 41.6301 125.658 42.1806C125.413 42.7311 125.29 43.2739 125.293 43.8106C125.296 44.3481 125.447 44.9331 125.749 45.5647L126.081 46.2592L119.654 49.3249L119.288 48.5584ZM124.209 56.9454C123.255 56.6085 122.552 55.9646 122.099 55.016C121.635 54.0428 121.574 53.0857 121.918 52.1448C122.26 51.2045 122.919 50.5017 123.892 50.0377C124.842 49.5844 125.805 49.5209 126.782 49.8463C127.759 50.1732 128.474 50.8095 128.926 51.7589C129.38 52.7083 129.425 53.6653 129.064 54.6293C128.701 55.5932 128.046 56.3022 127.097 56.7547C126.124 57.2187 125.16 57.283 124.209 56.9454Z" fill="#D1E5F7"/>
<path d="M150.486 27.1112C152.086 23.2906 154.85 20.9485 158.778 20.0833L160.662 19.6844C162.424 19.3667 163.699 19.0305 164.485 18.6776C165.27 18.3246 165.845 17.7174 166.206 16.8561C167.116 14.6839 165.753 12.8364 162.121 11.3143C160.435 10.6084 158.599 10.1038 156.613 9.80061C154.629 9.49665 152.656 9.42085 150.702 9.56862L154.326 0.917531C158.429 0.787371 162.617 1.61734 166.886 3.4059C171.493 5.33534 174.741 7.82983 176.629 10.8871C178.518 13.9459 178.748 17.1784 177.321 20.5863C176.521 22.4966 175.444 23.861 174.089 24.6803C172.732 25.4988 170.718 26.207 168.048 26.805C166.238 27.236 164.901 27.5897 164.036 27.8661C163.173 28.1433 162.44 28.5506 161.84 29.092C161.238 29.6333 160.734 30.3905 160.327 31.3629L159.88 32.431L149.992 28.2896L150.486 27.1112ZM146.003 41.0484C145.425 39.6403 145.443 38.2055 146.055 36.7446C146.682 35.247 147.696 34.2188 149.098 33.6606C150.497 33.1017 151.947 33.1369 153.444 33.764C154.905 34.3757 155.943 35.394 156.557 36.8174C157.17 38.2415 157.172 39.684 156.56 41.1441C155.949 42.6042 154.919 43.6156 153.474 44.1768C152.029 44.7373 150.575 44.712 149.115 44.1002C147.617 43.4739 146.578 42.4556 146.003 41.0484Z" fill="#D1E5F7"/>
<path d="M310.896 164.897V160.501H307.974V164.897H303.578V167.819H307.974V172.215H310.896V167.819H315.293V164.897H310.896Z" fill="#F3F4F6"/>
<path d="M283.295 24.1933V17.4893H278.838V24.1933H272.134V28.6502H278.838V35.3542H283.295V28.6502H289.999V24.1933H283.295Z" fill="#F3F4F6"/>
<path d="M271.146 153.955V150.754H269.017V153.955H265.816V156.084H269.017V159.285H271.146V156.084H274.347V153.955H271.146Z" fill="#F3F4F6"/>
<path d="M88.5944 42.6074V39.4062H86.4659V42.6074H83.2647V44.7359H86.4659V47.9371H88.5944V44.7359H91.7956V42.6074H88.5944Z" fill="#F3F4F6"/>
<path d="M63.9169 21.4354V17.0391H60.9944V21.4354H56.5988V24.3572H60.9944V28.7528H63.9169V24.3572H68.3133V21.4354H63.9169Z" fill="#F3F4F6"/>
<path d="M208.265 30.4107C208.265 31.334 207.517 32.0821 206.593 32.0821C205.67 32.0821 204.922 31.3333 204.922 30.4107C204.922 29.4873 205.671 28.7393 206.593 28.7393C207.517 28.7393 208.265 29.4873 208.265 30.4107Z" fill="#D1E5F7"/>
<path d="M215.111 1.67142C215.111 2.59479 214.362 3.34283 213.439 3.34283C212.516 3.34283 211.768 2.59402 211.768 1.67142C211.768 0.74804 212.516 0 213.439 0C214.362 0 215.111 0.748806 215.111 1.67142Z" fill="#D1E5F7"/>
<path d="M247.766 18.5775C249.514 18.5775 250.931 17.1604 250.931 15.4123C250.931 13.6642 249.514 12.2471 247.766 12.2471C246.018 12.2471 244.601 13.6642 244.601 15.4123C244.601 17.1604 246.018 18.5775 247.766 18.5775Z" fill="#D1E5F7"/>
<path d="M314.45 134.312C314.45 135.235 313.702 135.983 312.779 135.983C311.855 135.983 311.107 135.235 311.107 134.312C311.107 133.389 311.855 132.641 312.779 132.641C313.702 132.64 314.45 133.389 314.45 134.312Z" fill="#D1E5F7"/>
<path d="M312.779 186.501C312.779 187.425 312.03 188.173 311.107 188.173C310.184 188.173 309.436 187.424 309.436 186.501C309.436 185.578 310.184 184.83 311.107 184.83C312.031 184.83 312.779 185.578 312.779 186.501Z" fill="#D1E5F7"/>
<path d="M58.27 95.2212C58.27 96.1446 57.5212 96.8926 56.5986 96.8926C55.6752 96.8926 54.9272 96.1446 54.9272 95.2212C54.9272 94.2978 55.6752 93.5498 56.5986 93.5498C57.522 93.5498 58.27 94.2978 58.27 95.2212Z" fill="#D1E5F7"/>
<path d="M29.1767 29.0579C30.9248 29.0579 32.3419 27.6408 32.3419 25.8927C32.3419 24.1447 30.9248 22.7275 29.1767 22.7275C27.4286 22.7275 26.0115 24.1447 26.0115 25.8927C26.0115 27.6408 27.4286 29.0579 29.1767 29.0579Z" fill="#D1E5F7"/>
<path d="M91.5974 8.03666C91.5974 8.96003 90.8494 9.70807 89.926 9.70807C89.0026 9.70807 88.2546 8.96003 88.2546 8.03666C88.2546 7.11328 89.0034 6.36523 89.926 6.36523C90.8494 6.36523 91.5974 7.11328 91.5974 8.03666Z" fill="#D1E5F7"/>
<path d="M3.34296 108.282C3.34296 109.205 2.59491 109.953 1.67154 109.953C0.748162 109.953 0.00012207 109.204 0.00012207 108.282C0.00012207 107.358 0.748928 106.61 1.67154 106.61C2.59415 106.61 3.34296 107.358 3.34296 108.282Z" fill="#D1E5F7"/>
<path d="M3.34289 197.361C3.34289 198.284 2.59485 199.032 1.67148 199.032C0.748101 199.032 6.10352e-05 198.284 6.10352e-05 197.361C6.10352e-05 196.437 0.748867 195.689 1.67148 195.689C2.59409 195.689 3.34289 196.437 3.34289 197.361Z" fill="#D1E5F7"/>
<path d="M232.602 252.026C231.982 256.122 227.866 259.474 223.454 259.474H92.9154C88.5037 259.474 84.3424 256.129 83.6679 252.04L62.0543 120.963C61.3798 116.874 64.4385 113.528 68.8502 113.528H245.513C249.925 113.528 253.028 116.88 252.41 120.977L232.602 252.026Z" fill="#005AAB"/>
<path d="M199.846 69.7295H89.926V224.58H224.344V94.5871L199.846 69.7295Z" fill="#9CA3AF"/>
<path d="M199.845 69.7295L224.524 94.4072H199.845V69.7295Z" fill="#7997F2"/>
<path d="M142.57 153.154C142.57 145.052 145.787 138.739 152.219 134.21L155.317 132.068C158.255 130.163 160.3 128.594 161.453 127.364C162.603 126.133 163.181 124.604 163.181 122.777C163.181 118.171 159.327 115.867 151.624 115.867C148.051 115.867 144.358 116.345 140.545 117.298C136.735 118.25 133.12 119.602 129.706 121.348V103.003C137.011 99.6677 145.193 98 154.245 98C164.013 98 171.758 100.045 177.474 104.135C183.192 108.226 186.05 113.884 186.05 121.109C186.05 125.16 185.137 128.435 183.311 130.937C181.483 133.439 178.386 136.238 174.019 139.335C171.081 141.48 168.935 143.128 167.585 144.28C166.236 145.433 165.223 146.721 164.549 148.151C163.872 149.582 163.536 151.328 163.536 153.391V155.656H142.569V153.154H142.57ZM145.014 181.683C142.908 179.579 141.856 176.978 141.856 173.88C141.856 170.705 142.908 168.084 145.014 166.018C147.115 163.953 149.758 162.921 152.935 162.921C156.032 162.921 158.673 163.972 160.858 166.076C163.039 168.182 164.134 170.782 164.134 173.879C164.134 176.976 163.04 179.578 160.858 181.682C158.673 183.785 156.032 184.837 152.935 184.837C149.758 184.839 147.115 183.787 145.014 181.683Z" fill="#D1E5F7"/>
<path d="M169.898 158.504C166.432 158.508 162.761 155.802 161.739 152.49L156.704 136.158C155.682 132.845 152.011 130.136 148.545 130.136H59.0019C55.5358 130.136 53.1959 132.928 53.8016 136.341L75.6586 259.505C76.2642 262.918 79.5956 265.71 83.0617 265.71H238.173C241.64 265.71 244.919 262.91 245.462 259.486L260.503 164.596C261.046 161.173 258.654 158.375 255.188 158.38L169.898 158.504Z" fill="#005AAB"/>
<path d="M200.706 175.865L190.842 166L167.206 189.634L143.571 166L133.706 175.865L157.341 199.5L133.706 223.135L143.571 233L167.206 209.365L190.842 233L200.706 223.135L177.072 199.5L200.706 175.865Z" fill="#E8F3FE"/>
<path opacity="0.1" d="M255.102 158.378L245.402 158.392C245.615 160.625 245.73 162.879 245.73 165.153C245.73 216.019 191.289 257.254 124.133 257.254C106.144 257.254 89.0689 254.293 73.7061 248.982L75.5736 259.504C76.1792 262.916 79.5105 265.708 82.9766 265.708H238.088C241.554 265.708 244.834 262.908 245.377 259.484L260.418 164.594C260.96 161.171 258.568 158.374 255.102 158.378Z" fill="#0046A0"/>
<g opacity="0.3">
<path d="M68.9338 148.415C69.3947 151.507 69.8556 154.599 70.3173 157.69C71.4145 165.047 72.5117 172.404 73.6089 179.761C74.9449 188.721 76.281 197.679 77.6171 206.638C78.764 214.33 79.9109 222.021 81.0579 229.713C81.4392 232.268 81.8197 234.823 82.201 237.379C82.3802 238.579 82.482 239.824 82.7423 241.01C82.7538 241.06 82.7576 241.113 82.7653 241.165C82.9223 242.217 84.2514 242.798 85.1878 242.54C86.3156 242.23 86.7206 241.173 86.5629 240.117C86.102 237.025 85.6411 233.934 85.1794 230.842C84.0822 223.485 82.985 216.129 81.8879 208.771C80.5518 199.813 79.2157 190.853 77.8797 181.894C76.7327 174.202 75.5858 166.511 74.4388 158.82C74.0576 156.264 73.677 153.709 73.2957 151.153C73.1166 149.953 73.0147 148.708 72.7544 147.522C72.7429 147.472 72.7391 147.419 72.7314 147.368C72.5745 146.315 71.2453 145.735 70.3089 145.993C69.1819 146.303 68.7761 147.359 68.9338 148.415Z" fill="white"/>
</g>
<path d="M285.095 80.2246C272.991 80.2246 263.18 90.0364 263.18 102.14C263.18 107.549 265.144 112.498 268.391 116.32L267.476 127.604L277.947 122.857C280.188 123.63 282.591 124.056 285.095 124.056C297.198 124.056 307.01 114.244 307.01 102.141C307.01 90.0372 297.199 80.2246 285.095 80.2246Z" fill="#9CA3AF"/>
<path d="M283.578 113.359C283.178 112.958 282.977 112.464 282.977 111.874C282.977 111.284 283.178 110.79 283.578 110.389C283.979 109.987 284.474 109.787 285.063 109.787C285.653 109.787 286.154 109.987 286.567 110.389C286.979 110.789 287.186 111.284 287.186 111.874C287.186 112.464 286.978 112.959 286.567 113.359C286.154 113.76 285.653 113.96 285.063 113.96C284.474 113.96 283.979 113.76 283.578 113.359ZM282.341 88.71H287.857L286.832 106.357H283.365L282.341 88.71Z" fill="#F2F2F2"/>
<path opacity="0.1" d="M273.089 113.753C270.71 113.753 268.39 113.544 266.15 113.149C266.804 114.273 267.554 115.335 268.392 116.32L267.476 127.604L277.947 122.857C280.188 123.63 282.592 124.056 285.096 124.056C297.199 124.056 307.011 114.244 307.011 102.141C307.011 99.2077 306.43 96.4108 305.385 93.8535C300.996 105.396 288.199 113.753 273.089 113.753Z" fill="#0046A0"/>
<path d="M60.5601 74.2963V53.5158C60.5601 51.0205 58.5181 48.9785 56.0228 48.9785H18.1461C15.6508 48.9785 13.6088 51.0205 13.6088 53.5158V79.7026C13.6088 82.1978 15.6508 84.2398 18.1461 84.2398H52.0575H56.0221H71.489L60.5601 74.2963Z" fill="#9CA3AF"/>
<path d="M30.7526 63.6894C30.7526 65.6831 29.5942 67.2986 28.1662 67.2986C26.7375 67.2986 25.5791 65.6823 25.5791 63.6894C25.5791 61.6956 26.7375 60.0801 28.1662 60.0801C29.5942 60.0801 30.7526 61.6964 30.7526 63.6894Z" fill="white"/>
<path d="M47.9491 63.6894C47.9491 65.6831 46.7906 67.2986 45.3619 67.2986C43.9332 67.2986 42.7756 65.6823 42.7756 63.6894C42.7756 61.6956 43.934 60.0801 45.3619 60.0801C46.7914 60.0801 47.9491 61.6964 47.9491 63.6894Z" fill="white"/>
<path d="M30.836 73.7828C31.7226 72.8112 32.9568 72.0478 34.1842 71.6053C37.2912 70.4851 40.2941 71.655 42.6607 73.7828C43.2924 74.3509 44.2318 73.4176 43.5963 72.8472C40.9732 70.489 37.5699 69.1039 34.0808 70.244C32.5503 70.7439 30.996 71.6466 29.9004 72.8472C29.3269 73.475 30.2602 74.4137 30.836 73.7828Z" fill="white"/>
<path opacity="0.1" d="M60.5599 74.2963V53.5158C60.5599 51.0205 58.5179 48.9785 56.0227 48.9785H52.1401C52.8138 51.447 53.176 54.0058 53.176 56.632C53.176 67.6704 46.9045 77.5549 37.0108 84.2406H52.0581H56.0227H71.4896L60.5599 74.2963Z" fill="#9CA3AF"/>
</svg>
